<svg xmlns="http://www.w3.org/2000/svg" width="75.556" height="86.403" viewBox="0 0 75.556 86.403">
  <g id="ICON-GUIDE-RESOURCES" transform="translate(-29)">
    <path id="Path_41" data-name="Path 41" d="M184.3,26.876V73.967a5.6,5.6,0,0,1-5.611,5.611H135.111a5.6,5.6,0,0,1-5.611-5.611V15.711a5.6,5.6,0,0,1,5.611-5.611h32.915l.187.187-.187.187V23.827a3.049,3.049,0,0,0,3.048,3.048h12.848l.187-.187Z" transform="translate(-81.705 -8.211)" fill="none"/>
    <g id="Group_16" data-name="Group 16" transform="translate(30.964 2.076)">
      <path id="Path_42" data-name="Path 42" d="M351.584,27.5l-.187.187H338.548A3.049,3.049,0,0,1,335.5,24.64V11.287l.187-.187Z" transform="translate(-280.142 -11.1)" fill="none"/>
      <path id="Path_43" data-name="Path 43" d="M94.3,136.73v7.537a5.6,5.6,0,0,1-5.611,5.611H45.111a5.6,5.6,0,0,1-5.611-5.611V86.011A5.6,5.6,0,0,1,45.111,80.4H56.332v50.72a5.6,5.6,0,0,0,5.611,5.611Z" transform="translate(-39.5 -67.44)" fill="none"/>
    </g>
    <path id="Path_44" data-name="Path 44" d="M103.752,17.168h0L87.649.58A1.931,1.931,0,0,0,86.3,0H53.387a7.583,7.583,0,0,0-7.556,7.5v5.592H36.574A7.623,7.623,0,0,0,29,20.647V78.9a7.575,7.575,0,0,0,7.574,7.5H80.15a7.587,7.587,0,0,0,7.574-7.5V73.311h9.257a7.623,7.623,0,0,0,7.574-7.556V18.665a1.961,1.961,0,0,0-.58-1.309ZM88.1,6.508l10.08,10.323H89.37A1.288,1.288,0,0,1,88.1,15.616ZM83.984,78.9a3.849,3.849,0,0,1-3.834,3.759H36.574A3.849,3.849,0,0,1,32.74,78.9V20.647a3.9,3.9,0,0,1,3.834-3.815h9.257V65.756a7.623,7.623,0,0,0,7.574,7.556H83.984Zm16.832-13.147a3.9,3.9,0,0,1-3.834,3.815H53.406a3.9,3.9,0,0,1-3.834-3.815V7.5A3.849,3.849,0,0,1,53.406,3.74H84.358V15.616a5.037,5.037,0,0,0,5.012,4.956h11.446Z"/>
    <path id="Path_45" data-name="Path 45" d="M169.7,204.87a1.876,1.876,0,0,0,1.87,1.87h35.085a1.87,1.87,0,0,0,0-3.74H171.57A1.876,1.876,0,0,0,169.7,204.87Z" transform="translate(-114.386 -165.035)"/>
    <path id="Path_46" data-name="Path 46" d="M171.57,150.74h21a1.87,1.87,0,1,0,0-3.74h-21a1.87,1.87,0,1,0,0,3.74Z" transform="translate(-114.386 -119.508)"/>
    <path id="Path_47" data-name="Path 47" d="M206.655,263H171.57a1.87,1.87,0,1,0,0,3.74h35.085a1.87,1.87,0,1,0,0-3.74Z" transform="translate(-114.386 -213.814)"/>
  </g>
</svg>
