<svg xmlns="http://www.w3.org/2000/svg" width="37.834" height="37.834" viewBox="0 0 37.834 37.834">
  <path id="linkedin_2_" data-name="linkedin (2)" d="M11.824,31.258H6.651v-16.7h5.173ZM12.34,9.237a3.029,3.029,0,1,0-3.028,3.03A3.03,3.03,0,0,0,12.34,9.237ZM31.184,22.07c0-4.483-.947-7.808-6.184-7.808a5.368,5.368,0,0,0-4.9,2.567h0V14.557H15.075v16.7H20.1V22.966c0-2.172.553-4.275,3.244-4.275,2.655,0,2.741,2.483,2.741,4.413v8.154h5.1ZM37.834,33.4V4.434A4.439,4.439,0,0,0,33.4,0H4.434A4.439,4.439,0,0,0,0,4.434V33.4a4.439,4.439,0,0,0,4.434,4.434H33.4A4.439,4.439,0,0,0,37.834,33.4ZM33.4,2.956a1.48,1.48,0,0,1,1.478,1.478V33.4A1.48,1.48,0,0,1,33.4,34.878H4.434A1.48,1.48,0,0,1,2.956,33.4V4.434A1.48,1.48,0,0,1,4.434,2.956Zm0,0" fill="#020004"/>
</svg>
