<svg xmlns="http://www.w3.org/2000/svg" width="117.07" height="117.072" viewBox="0 0 117.07 117.072">
  <g id="diet" transform="translate(-0.004)">
    <path id="Path_29" data-name="Path 29" d="M95.822,72.176h1.952a1.951,1.951,0,0,0,0-3.9H95.822a1.951,1.951,0,0,0,0,3.9Zm0,0" transform="translate(-72.404 -52.662)"/>
    <path id="Path_30" data-name="Path 30" d="M138.487,72.176h25.365a1.951,1.951,0,0,0,0-3.9H138.487a1.951,1.951,0,1,0,0,3.9Zm0,0" transform="translate(-105.313 -52.662)"/>
    <path id="Path_31" data-name="Path 31" d="M99.363,62.439H95.082a9.111,9.111,0,0,0-2.621.39,1.8,1.8,0,0,0-.195.056,9.038,9.038,0,0,0-2.833,1.6c.423-4.488,2.646-11,11.079-15.984a1.951,1.951,0,0,0-1.983-3.36A25.7,25.7,0,0,0,86.972,58.1c-.1-.338-.214-.667-.336-.975a16.312,16.312,0,0,0-4.683-6.634V17.563A5.853,5.853,0,0,0,76.1,11.709H67.936a5.855,5.855,0,0,0-5.495-3.9H51.989a11.668,11.668,0,0,0-22.02,0H19.515a5.853,5.853,0,0,0-5.494,3.9H5.858A5.854,5.854,0,0,0,0,17.563v93.656a5.854,5.854,0,0,0,5.854,5.854H76.1a5.712,5.712,0,0,0,2.622-.634,23.967,23.967,0,0,0,5.438.634h7.294c14.126,0,25.621-12.252,25.621-27.317V81.307C117.074,70.907,109.129,62.439,99.363,62.439ZM82.987,58.517a26.208,26.208,0,0,1,1.091,4.7c-.195-.084-.369-.2-.565-.26a8.858,8.858,0,0,0-2.993-.521H76.25c-.535,0-1.061.037-1.584.086-.048-.013-.084-.045-.135-.054-6.458-1.293-6.368-8.827-6.124-11.524a31.7,31.7,0,0,1,3.75-.209H72.2a11.512,11.512,0,0,1,10.79,7.788ZM63.163,105.365H11.711V23.415h2.311a5.852,5.852,0,0,0,5.494,3.9H62.441a5.854,5.854,0,0,0,5.495-3.9h2.31V46.859c-5.039.18-5.373,1.583-5.553,2.385-.687,4.014-.338,11.122,4.308,14.874A18.96,18.96,0,0,0,58.539,81.307v8.449A28.385,28.385,0,0,0,63.163,105.365Zm14.887-87.8V48.1a15.612,15.612,0,0,0-3.9-1.069V23.415a3.9,3.9,0,0,0-3.9-3.9H68.3v-3.9h7.8A1.951,1.951,0,0,1,78.05,17.563ZM19.515,11.709h11.9a1.6,1.6,0,0,0,.195-.041,1.882,1.882,0,0,0,.359-.072,1.838,1.838,0,0,0,.357-.148,1.876,1.876,0,0,0,.765-.765,1.743,1.743,0,0,0,.151-.357,1.628,1.628,0,0,0,.078-.181,7.8,7.8,0,0,1,15.293,0,1.96,1.96,0,0,0,.082.207,2.258,2.258,0,0,0,.11.279,1.879,1.879,0,0,0,.238.353,1.84,1.84,0,0,0,.183.207,1.93,1.93,0,0,0,.379.255,1.527,1.527,0,0,0,.932.263h11.9a1.951,1.951,0,0,1,1.952,1.952v7.8a1.951,1.951,0,0,1-1.952,1.951H19.515a1.951,1.951,0,0,1-1.951-1.951v-7.8A1.951,1.951,0,0,1,19.515,11.709ZM5.858,113.17a1.951,1.951,0,0,1-1.952-1.952V17.563a1.951,1.951,0,0,1,1.952-1.952h7.8v3.9H11.711a3.9,3.9,0,0,0-3.9,3.9v81.95a3.9,3.9,0,0,0,3.9,3.9H66.261a26.1,26.1,0,0,0,4.765,3.9ZM113.172,89.755c0,12.909-9.745,23.415-21.718,23.415H84.16c-11.974,0-21.718-10.5-21.718-23.415V81.307c0-8.248,6.2-14.965,13.808-14.965h4.3a5,5,0,0,1,1.637.293,5.839,5.839,0,0,1,3.666,5.578v1.934a1.951,1.951,0,1,0,3.9,0V72.207A5.842,5.842,0,0,1,93.4,66.62l.094-.027a5.324,5.324,0,0,1,1.56-.255h4.309c7.615,0,13.81,6.721,13.81,14.969Zm0,0" transform="translate(0)"/>
    <path id="Path_32" data-name="Path 32" d="M297.325,307.3c-.295.1-7.188,2.5-7.188,11.607a1.951,1.951,0,1,0,3.9,0c0-6.192,4.316-7.831,4.536-7.91a1.951,1.951,0,1,0-1.25-3.7Zm0,0" transform="translate(-223.793 -236.951)"/>
    <path id="Path_33" data-name="Path 33" d="M78.026,145.074H72.172a3.9,3.9,0,0,0-3.9,3.9v5.854a3.9,3.9,0,0,0,3.9,3.9h5.854a3.9,3.9,0,0,0,3.9-3.9v-5.854A3.9,3.9,0,0,0,78.026,145.074Zm-5.854,9.756v-5.854h5.854v5.854Zm0,0" transform="translate(-52.656 -111.903)"/>
    <path id="Path_34" data-name="Path 34" d="M78.026,221.875H72.172a3.9,3.9,0,0,0-3.9,3.9v5.853a3.9,3.9,0,0,0,3.9,3.9h5.854a3.9,3.9,0,0,0,3.9-3.9v-5.853A3.9,3.9,0,0,0,78.026,221.875Zm-5.854,9.755v-5.853h5.854v5.853Zm0,0" transform="translate(-52.656 -171.143)"/>
    <path id="Path_35" data-name="Path 35" d="M78.026,298.676H72.172a3.9,3.9,0,0,0-3.9,3.9v5.853a3.9,3.9,0,0,0,3.9,3.9h5.854a3.9,3.9,0,0,0,3.9-3.9v-5.853A3.9,3.9,0,0,0,78.026,298.676Zm-5.854,9.755v-5.853h5.854v5.853Zm0,0" transform="translate(-52.656 -230.383)"/>
    <path id="Path_36" data-name="Path 36" d="M78.026,375.473H72.172a3.9,3.9,0,0,0-3.9,3.9v5.854a3.9,3.9,0,0,0,3.9,3.9h5.854a3.9,3.9,0,0,0,3.9-3.9v-5.854A3.9,3.9,0,0,0,78.026,375.473Zm-5.854,9.756v-5.854h5.854v5.854Zm0,0" transform="translate(-52.656 -289.62)"/>
    <path id="Path_37" data-name="Path 37" d="M147.022,174.578h27.316a1.951,1.951,0,1,0,0-3.9H147.022a1.951,1.951,0,1,0,0,3.9Zm0,0" transform="translate(-111.897 -131.65)"/>
    <path id="Path_38" data-name="Path 38" d="M168.484,247.473H147.022a1.951,1.951,0,1,0,0,3.9h21.462a1.951,1.951,0,1,0,0-3.9Zm0,0" transform="translate(-111.897 -190.887)"/>
    <path id="Path_39" data-name="Path 39" d="M164.582,324.273h-17.56a1.951,1.951,0,1,0,0,3.9h17.56a1.951,1.951,0,1,0,0-3.9Zm0,0" transform="translate(-111.897 -250.127)"/>
    <path id="Path_40" data-name="Path 40" d="M164.582,401.074h-17.56a1.951,1.951,0,1,0,0,3.9h17.56a1.951,1.951,0,1,0,0-3.9Zm0,0" transform="translate(-111.897 -309.367)"/>
  </g>
</svg>
