<svg id="facebook_4_" data-name="facebook (4)" xmlns="http://www.w3.org/2000/svg" width="37.331" height="37.331" viewBox="0 0 37.331 37.331">
  <g id="Group_61" data-name="Group 61">
    <path id="Path_91" data-name="Path 91" d="M32.956,0H4.375A4.38,4.38,0,0,0,0,4.375V32.956A4.38,4.38,0,0,0,4.375,37.33H32.956a4.38,4.38,0,0,0,4.375-4.375V4.375A4.38,4.38,0,0,0,32.956,0Zm1.458,32.956a1.46,1.46,0,0,1-1.458,1.458H24.644V22.529h4.505l.744-4.52h-5.25V14.874a2.15,2.15,0,0,1,2.187-2.187h2.989V8.166H26.831a6.707,6.707,0,0,0-6.706,6.72v3.122H15.749v4.52h4.376V34.414H4.375a1.46,1.46,0,0,1-1.458-1.458V4.375A1.46,1.46,0,0,1,4.375,2.916H32.956a1.46,1.46,0,0,1,1.458,1.458Z" fill="#020004"/>
  </g>
</svg>
