<svg xmlns="http://www.w3.org/2000/svg" width="136.071" height="71.7" viewBox="0 0 136.071 71.7">
  <path id="Path_48" data-name="Path 48" d="M134.06,158.233h-9.531V147.218a5.792,5.792,0,0,0-5.5-6.036h-6.461a5.015,5.015,0,0,0-1.475.227v-2.222a5.792,5.792,0,0,0-5.5-6.036H94.926a5.792,5.792,0,0,0-5.5,6.036v19.046H46.641V139.187a5.792,5.792,0,0,0-5.5-6.036H30.472a5.792,5.792,0,0,0-5.5,6.036v2.222a5.016,5.016,0,0,0-1.475-.227H17.04a5.792,5.792,0,0,0-5.5,6.036v11.015H2.011A2.116,2.116,0,0,0,0,160.442v17.119a2.116,2.116,0,0,0,2.011,2.208h9.532v11.015a5.792,5.792,0,0,0,5.5,6.036H23.5a5.024,5.024,0,0,0,1.475-.227v2.222a5.792,5.792,0,0,0,5.5,6.036H41.144a5.792,5.792,0,0,0,5.5-6.036V179.769H89.43v19.046a5.792,5.792,0,0,0,5.5,6.036H105.6a5.792,5.792,0,0,0,5.5-6.036v-2.222a5.016,5.016,0,0,0,1.475.227h6.461a5.792,5.792,0,0,0,5.5-6.036V179.769h9.531a2.116,2.116,0,0,0,2.011-2.208V160.442A2.117,2.117,0,0,0,134.06,158.233ZM11.543,175.353H4.022v-12.7h7.52Zm13.432,15.432A1.554,1.554,0,0,1,23.5,192.4H17.04a1.554,1.554,0,0,1-1.475-1.619V147.218A1.554,1.554,0,0,1,17.04,145.6H23.5a1.554,1.554,0,0,1,1.475,1.619Zm17.644-30.343v38.373a1.554,1.554,0,0,1-1.475,1.619H30.472A1.554,1.554,0,0,1,29,198.815V139.187a1.554,1.554,0,0,1,1.475-1.619H41.144a1.554,1.554,0,0,1,1.475,1.619Zm46.81,14.911H46.641v-12.7H89.429Zm17.645-28.135v51.6a1.554,1.554,0,0,1-1.475,1.619H94.927a1.554,1.554,0,0,1-1.475-1.619V139.187a1.554,1.554,0,0,1,1.475-1.619H105.6a1.554,1.554,0,0,1,1.475,1.619Zm13.432,13.224v30.343a1.554,1.554,0,0,1-1.475,1.619h-6.461a1.554,1.554,0,0,1-1.475-1.619V147.218a1.554,1.554,0,0,1,1.475-1.619h6.461a1.554,1.554,0,0,1,1.475,1.619Zm11.542,14.911h-7.52v-12.7h7.52Z" transform="translate(0 -133.151)"/>
</svg>
