<svg id="instagram-logo" xmlns="http://www.w3.org/2000/svg" width="37.331" height="37.834" viewBox="0 0 37.331 37.834">
  <path id="Path_88" data-name="Path 88" d="M27.028,0H10.3A10.384,10.384,0,0,0,0,10.441V27.394A10.384,10.384,0,0,0,10.3,37.834H27.028a10.384,10.384,0,0,0,10.3-10.441V10.441A10.384,10.384,0,0,0,27.028,0Zm6.99,27.394a7.045,7.045,0,0,1-6.99,7.084H10.3a7.045,7.045,0,0,1-6.99-7.084V10.441A7.045,7.045,0,0,1,10.3,3.357H27.028a7.046,7.046,0,0,1,6.99,7.084V27.394Z" transform="translate(0)" fill="#020004"/>
  <path id="Path_89" data-name="Path 89" d="M50.465,40.97a9.752,9.752,0,1,0,9.5,9.749A9.636,9.636,0,0,0,50.465,40.97Zm0,16.14a6.394,6.394,0,1,1,6.227-6.392A6.318,6.318,0,0,1,50.465,57.11Z" transform="translate(-31.8 -31.801)" fill="#020004"/>
  <path id="Path_90" data-name="Path 90" d="M121.383,28.251a2.46,2.46,0,1,0,1.741.721A2.471,2.471,0,0,0,121.383,28.251Z" transform="translate(-92.715 -21.929)" fill="#020004"/>
</svg>
